<?xml version="1.0" encoding="UTF-8" standalone="no"?>
<svg
    xmlns:dc="http://purl.org/dc/elements/1.1/"
    xmlns:cc="http://creativecommons.org/ns#"
    xmlns:rdf="http://www.w3.org/1999/02/22-rdf-syntax-ns#"
    xmlns:svg="http://www.w3.org/2000/svg"
    xmlns="http://www.w3.org/2000/svg"
    xmlns:xlink="http://www.w3.org/1999/xlink"
    xmlns:sodipodi="http://sodipodi.sourceforge.net/DTD/sodipodi-0.dtd"
    xmlns:inkscape="http://www.inkscape.org/namespaces/inkscape"
    width="200mm"
    height="80mm"
    viewBox="0 0 708.6614 283.46457"
    id="svg2"
    version="1.1"
    inkscape:version="0.91 r13725"
    sodipodi:docname="logo_and_logotype.svg">
   <sodipodi:namedview
       pagecolor="#ffffff"
       bordercolor="#666666"
       borderopacity="1"
       objecttolerance="10"
       gridtolerance="10"
       guidetolerance="10"
       inkscape:pageopacity="0"
       inkscape:pageshadow="2"
       inkscape:window-width="1366"
       inkscape:window-height="745"
       id="namedview20"
       showgrid="false"
       inkscape:zoom="0.78179125"
       inkscape:cx="556.29286"
       inkscape:cy="35.039761"
       inkscape:window-x="-8"
       inkscape:window-y="-8"
       inkscape:window-maximized="1"
       inkscape:current-layer="svg2" />
   <defs
       id="defs4">
      <linearGradient
          id="linearGradient4477">
         <stop
             id="stop4479"
             offset="0"
             style="stop-color:#270f74;stop-opacity:1" />
         <stop
             id="stop4481"
             offset="1"
             style="stop-color:#5764b9;stop-opacity:1" />
      </linearGradient>
      <radialGradient
          r="103.37759"
          fy="1584.5262"
          fx="-769.59088"
          cy="1584.5262"
          cx="-769.59088"
          gradientTransform="matrix(0.50789304,-0.13608953,0.19422875,0.72487153,268.4677,-1070.5007)"
          gradientUnits="userSpaceOnUse"
          id="radialGradient5929"
          xlink:href="#linearGradient4477" />
      <radialGradient
          r="103.37759"
          fy="1584.5262"
          fx="-769.59088"
          cy="1584.5262"
          cx="-769.59088"
          gradientTransform="matrix(-0.50789304,-0.13608953,-0.19422875,0.72487153,47.6482,-1070.4954)"
          gradientUnits="userSpaceOnUse"
          id="radialGradient4485"
          xlink:href="#linearGradient4477" />
   </defs>
   <metadata
       id="metadata7">
      <rdf:RDF>
         <cc:Work
             rdf:about="">
            <dc:format>image/svg+xml</dc:format>
            <dc:type
                rdf:resource="http://purl.org/dc/dcmitype/StillImage" />
            <dc:title />
         </cc:Work>
      </rdf:RDF>
   </metadata>
   <g
       id="g4174"
       transform="translate(0,10.263615)">
      <path
          d="m 393.19515,120.85356 q -0.61304,25.13449 -0.61304,37.62511 0,1.99237 0.15326,6.13037 0.15326,4.13799 0.15326,6.13036 l 1.91574,42.68266 q -6.28362,-0.61304 -9.73195,-0.61304 -3.3717,0 -10.42162,0.61304 l 1.91574,-43.2957 q 0.30651,-3.14181 0.38314,-9.57869 0.0766,-6.43688 0.22989,-9.57869 l 0,-16.93513 0,-14.78951 -0.91955,-42.682657 q 8.50588,0.919555 9.11891,0.919555 6.89666,0 9.73196,-1.226073 l -1.91574,44.598395 z"
          style="font-style:normal;font-variant:normal;font-weight:normal;font-stretch:normal;font-size:medium;line-height:125%;font-family:IrisUPC;-inkscape-font-specification:IrisUPC;text-align:start;letter-spacing:0px;word-spacing:0px;writing-mode:lr-tb;text-anchor:start;fill:#383838;fill-opacity:1;stroke:none;stroke-width:1px;stroke-linecap:butt;stroke-linejoin:miter;stroke-opacity:1"
          id="path4162"
          inkscape:connector-curvature="0" />
      <path
          d="m 448.67494,139.32128 q 1.53259,0 4.6744,0.15326 3.14182,0.15326 4.75104,0.15326 8.65914,0 16.62861,-1.22607 11.64769,-2.52878 18.69761,-10.03847 7.04992,-7.5097 7.04992,-18.85087 0,-11.264544 -6.59014,-17.854686 -5.4407,-5.823845 -15.40254,-7.586325 -3.75485,-0.306518 -12.56725,-0.306518 -11.26454,0 -16.62861,0.306518 l -0.61304,55.249901 z m -1.53259,-62.759597 26.66708,-0.613036 q 14.63625,0 25.05787,2.911923 10.42162,2.911922 15.40254,12.797134 4.06136,7.049919 4.06136,15.325906 0,16.39873 -11.87758,25.90079 -11.80095,9.42544 -29.19586,12.41399 l 41.37996,52.41461 9.73195,11.34117 3.44833,4.36789 q -2.22225,-0.15326 -6.05373,-0.53641 -3.83148,-0.38315 -5.82385,-0.38315 -1.83911,0 -5.51732,0.38315 -3.67822,0.38315 -5.82385,0.53641 -1.22607,-1.76248 -5.21081,-7.20318 -3.90811,-5.51733 -6.97329,-9.73195 l -23.90842,-30.80508 -16.01557,-18.77424 -7.5097,0 0,16.01558 0,8.73576 0.61304,41.76311 q -5.67059,-0.61304 -9.04229,-0.61304 -3.44833,0 -9.73195,0.61304 0,-5.21081 0.30652,-11.26455 0.38314,-6.13036 0.61303,-11.95421 l 0.91956,-70.34592 -1.22608,-38.927813 0,-4.98092 15.70906,0.613036 z"
          style="font-style:normal;font-variant:normal;font-weight:normal;font-stretch:normal;font-size:medium;line-height:125%;font-family:IrisUPC;-inkscape-font-specification:IrisUPC;text-align:start;letter-spacing:0px;word-spacing:0px;writing-mode:lr-tb;text-anchor:start;fill:#383838;fill-opacity:1;stroke:none;stroke-width:1px;stroke-linecap:butt;stroke-linejoin:miter;stroke-opacity:1"
          id="path4164"
          inkscape:connector-curvature="0" />
      <path
          d="m 571.58873,120.85356 q -0.61303,25.13449 -0.61303,37.62511 0,1.99237 0.15326,6.13037 0.15325,4.13799 0.15325,6.13036 l 1.91574,42.68266 q -6.28362,-0.61304 -9.73195,-0.61304 -3.3717,0 -10.42162,0.61304 l 1.91574,-43.2957 q 0.30652,-3.14181 0.38315,-9.57869 0.0766,-6.43688 0.22989,-9.57869 l 0,-16.93513 0,-14.78951 -0.91956,-42.682657 q 8.50588,0.919555 9.11892,0.919555 6.89666,0 9.73195,-1.226073 l -1.91574,44.598395 z"
          style="font-style:normal;font-variant:normal;font-weight:normal;font-stretch:normal;font-size:medium;line-height:125%;font-family:IrisUPC;-inkscape-font-specification:IrisUPC;text-align:start;letter-spacing:0px;word-spacing:0px;writing-mode:lr-tb;text-anchor:start;fill:#383838;fill-opacity:1;stroke:none;stroke-width:1px;stroke-linecap:butt;stroke-linejoin:miter;stroke-opacity:1"
          id="path4166"
          inkscape:connector-curvature="0" />
      <path
          d="m 605.76552,187.06149 q 6.28362,10.1151 13.71669,15.24928 7.50969,5.13418 18.54435,5.13418 12.10747,0 20.00031,-8.42925 7.96947,-8.42925 7.96947,-20.46009 0,-16.47535 -20.07694,-25.36438 -4.44451,-2.069 -10.1151,-4.36788 -5.67059,-2.29889 -10.1151,-4.36789 -4.36789,-2.14562 -8.35262,-4.82766 -14.09984,-9.42543 -14.09984,-27.58664 0,-18.391087 12.64388,-28.352929 12.64387,-9.961841 31.87789,-9.961841 18.1612,0 28.88934,9.425434 -2.29889,4.827662 -5.67059,16.628613 l -1.83911,0 q -3.06518,-8.352621 -9.57869,-13.256912 -6.51351,-4.904292 -15.24928,-4.904292 -10.72814,0 -18.08457,6.82003 -7.27981,6.82003 -7.27981,17.318277 0,11.49443 8.42925,18.54435 3.44833,2.8353 7.89284,4.98092 4.44452,2.37552 7.81622,3.44833 2.91192,1.22608 5.36407,2.22226 2.52877,0.91955 3.75484,1.53259 2.52878,1.07281 4.98092,2.14563 2.52878,0.99618 4.138,1.99237 9.80858,5.51732 12.49062,8.73576 8.50588,10.57488 8.50588,21.37965 0,13.79332 -6.66677,24.13831 -6.59015,10.26836 -18.00795,15.70905 -11.4178,5.36407 -25.21112,5.36407 -8.35262,0 -18.1612,-3.06518 -9.73196,-3.06518 -14.48299,-8.27599 2.68204,-6.97329 3.75485,-17.54817 l 2.22226,0 z"
          style="font-style:normal;font-variant:normal;font-weight:normal;font-stretch:normal;font-size:medium;line-height:125%;font-family:IrisUPC;-inkscape-font-specification:IrisUPC;text-align:start;letter-spacing:0px;word-spacing:0px;writing-mode:lr-tb;text-anchor:start;fill:#383838;fill-opacity:1;stroke:none;stroke-width:1px;stroke-linecap:butt;stroke-linejoin:miter;stroke-opacity:1"
          id="path4168"
          inkscape:connector-curvature="0" />
   </g>
   <path
       inkscape:connector-curvature="0"
       id="path4483"
       d="m 110.7248,123.97003 c 3.4054,-0.11491 6.8144,-0.0434 10.2118,0.21484 -2.7521,0.68069 -5.4716,1.4864 -8.1502,2.41476 -2.9332,1.0311 -5.8131,2.20821 -8.6288,3.52688 -0.3299,0.17217 -0.6588,0.34632 -0.9865,0.52243 -2.4727,1.17647 -4.8922,2.46122 -7.2519,3.85057 -2.6689,1.59506 -5.2563,3.32252 -7.7529,5.17597 -2.4997,1.8517 -4.9053,3.82726 -7.2077,5.91932 -2.3003,2.09281 -4.4944,4.29937 -6.5744,6.61141 -2.0804,2.31277 -4.0438,4.72813 -5.8828,7.2371 -1.8369,2.50943 -3.5471,5.10915 -5.1243,7.7894 -1.5796,2.67728 -3.0244,5.43191 -4.3289,8.25345 -0.5249,1.22846 -1.0231,2.46808 -1.4947,3.71792 0.6454,-1.02398 1.3105,-2.03527 1.9952,-3.03336 1.839,-2.50896 3.8024,-4.92436 5.8828,-7.23714 2.08,-2.31204 4.2741,-4.5186 6.5745,-6.61141 2.3023,-2.09206 4.7079,-4.06768 7.2076,-5.91937 2.4965,-1.85345 5.084,-3.58091 7.7529,-5.17592 2.6715,-1.59416 5.421,-3.05366 8.2384,-4.37307 2.8157,-1.31866 5.6956,-2.49571 8.6289,-3.52676 2.138,-0.71867 4.3015,-1.35955 6.4862,-1.92136 0.8139,-0.2542 1.6312,-0.49726 2.4517,-0.72906 3.0219,-0.73392 6.0785,-1.31628 9.1585,-1.74488 3.0815,-0.42956 6.1825,-0.70474 9.2915,-0.82442 l -2.2335,82.29518 c -15.4332,8.36232 -33.2894,12.41603 -51.7181,10.97058 0.5886,0.0276 1.1782,0.0276 1.7668,0 0.626,-0.0301 1.2502,-0.0921 1.8701,-0.18474 0.622,-0.0947 1.2388,-0.22056 1.8482,-0.37696 0.6102,-0.15627 1.2123,-0.34314 1.8037,-0.55973 0.5886,-0.21647 1.1661,-0.46219 1.7303,-0.7362 0.5668,-0.27396 1.1196,-0.57615 1.6563,-0.90542 0.5353,-0.32975 1.0538,-0.68605 1.5534,-1.0676 0.4985,-0.38082 0.9777,-0.78634 1.4358,-1.21494 0.459,-0.42697 0.8963,-0.87659 1.3103,-1.34716 0.4147,-0.47344 0.8056,-0.96742 1.1709,-1.47995 0.365,-0.51285 0.7039,-1.04364 1.0158,-1.59039 0.3126,-0.54496 0.5977,-1.10517 0.8542,-1.67856 0.1815,-0.4062 0.3483,-0.81875 0.5005,-1.23676 0.214,-0.58931 0.3982,-1.18893 0.5523,-1.7966 0.1566,-0.60928 0.2822,-1.22601 0.3771,-1.84783 0.092,-0.62226 0.1549,-1.2488 0.1847,-1.87724 0.031,-0.62786 0.031,-1.25695 0,-1.88482 -0.032,-0.62616 -0.097,-1.25026 -0.1924,-1.87002 2e-4,-0.0119 2e-4,-0.0254 0,-0.0381 -1.2872,1.09817 -2.6237,2.13738 -4.0051,3.11443 -1.0834,0.75819 -2.1934,1.47771 -3.3276,2.15728 -1.5996,0.95766 -3.2459,1.8348 -4.933,2.62817 -1.6887,0.79517 -3.4163,1.50537 -5.176,2.12793 -1.7585,0.624 -3.5474,1.15968 -5.3595,1.60503 -1.8122,0.44222 -3.6453,0.79364 -5.4925,1.05281 -1.8483,0.26209 -3.7083,0.43158 -5.5734,0.50781 -1.8649,0.0732 -3.7324,0.0533 -5.5954,-0.0601 -1.8619,-0.111 -3.7171,-0.31487 -5.5586,-0.61101 -1.8443,-0.29849 -3.6723,-0.68917 -5.4775,-1.17049 -1.8018,-0.48043 -3.5783,-1.0506 -5.3231,-1.70839 -1.7464,-0.6551 -3.459,-1.39712 -5.1314,-2.22324 -1.6741,-0.82834 -3.3058,-1.73992 -4.8887,-2.73139 -1.3494,-0.86124 -2.6611,-1.77995 -3.9317,-2.75366 -1.7727,-1.3973 -3.4941,-2.85848 -5.1609,-4.38065 -0.031,-0.0286 -0.06,-0.0577 -0.09,-0.0866 0.4771,-4.75479 1.319,-9.46591 2.5179,-14.09168 9.4149,-34.96196 38.2103,-61.31787 73.867,-67.60907 4.1877,-0.77711 8.4237,-1.26653 12.6782,-1.46484 z"
       style="color:#000000;display:inline;overflow:visible;visibility:visible;opacity:1;fill:url(#radialGradient4485);fill-opacity:1;stroke:none;stroke-width:0.10000001;stroke-linecap:butt;stroke-linejoin:miter;stroke-miterlimit:11.19999981;stroke-dasharray:none;stroke-dashoffset:0;stroke-opacity:1;marker:none;enable-background:accumulate" />
   <path
       inkscape:connector-curvature="0"
       style="color:#000000;display:inline;overflow:visible;visibility:visible;opacity:1;fill:url(#radialGradient5929);fill-opacity:1;stroke:none;stroke-width:0.10000001;stroke-linecap:butt;stroke-linejoin:miter;stroke-miterlimit:11.19999981;stroke-dasharray:none;stroke-dashoffset:0;stroke-opacity:1;marker:none;enable-background:accumulate"
       d="m 205.3911,123.96474 c -3.4054,-0.11491 -6.8144,-0.0434 -10.2118,0.21483 2.752,0.68069 5.4716,1.4864 8.1502,2.41476 2.9332,1.03111 5.8131,2.20822 8.6288,3.52688 0.3299,0.17218 0.6588,0.34633 0.9865,0.52244 2.4726,1.17646 4.8922,2.46122 7.2518,3.85056 2.669,1.59506 5.2564,3.32253 7.7529,5.17597 2.4998,1.85171 4.9054,3.82726 7.2078,5.91932 2.3002,2.09281 4.4944,4.29938 6.5743,6.61142 2.0805,2.31277 4.0438,4.72813 5.8829,7.2371 1.8368,2.50943 3.547,5.10915 5.1243,7.78939 1.5796,2.67728 3.0244,5.43192 4.3289,8.25346 0.5248,1.22846 1.0231,2.46808 1.4947,3.71792 -0.6454,-1.02399 -1.3105,-2.03528 -1.9952,-3.03337 -1.8391,-2.50895 -3.8024,-4.92436 -5.8828,-7.23713 -2.08,-2.31204 -4.2742,-4.5186 -6.5746,-6.61142 -2.3022,-2.09206 -4.7078,-4.06768 -7.2076,-5.91937 -2.4965,-1.85344 -5.0839,-3.58091 -7.7529,-5.17592 -2.6715,-1.59415 -5.4209,-3.05365 -8.2383,-4.37306 -2.8157,-1.31867 -5.6956,-2.49571 -8.629,-3.52676 -2.1379,-0.71867 -4.3015,-1.35956 -6.4861,-1.92137 -0.8139,-0.2542 -1.6312,-0.49726 -2.4517,-0.72905 -3.0219,-0.73392 -6.0785,-1.31628 -9.1586,-1.74488 -3.0814,-0.42956 -6.1824,-0.70475 -9.2914,-0.82442 l 2.2335,82.29518 c 15.4332,8.36232 33.2894,12.41603 51.7181,10.97057 -0.5887,0.0276 -1.1782,0.0276 -1.7669,0 -0.6259,-0.0301 -1.2502,-0.0921 -1.87,-0.18474 -0.622,-0.0947 -1.2388,-0.22056 -1.8483,-0.37695 -0.6101,-0.15628 -1.2122,-0.34315 -1.8036,-0.55974 -0.5887,-0.21647 -1.1661,-0.46219 -1.7303,-0.7362 -0.5669,-0.27396 -1.1196,-0.57614 -1.6564,-0.90541 -0.5352,-0.32975 -1.0537,-0.68606 -1.5534,-1.0676 -0.4984,-0.38082 -0.9776,-0.78634 -1.4357,-1.21494 -0.459,-0.42697 -0.8963,-0.8766 -1.3104,-1.34716 -0.4146,-0.47345 -0.8055,-0.96742 -1.1708,-1.47995 -0.365,-0.51285 -0.704,-1.04365 -1.0158,-1.59039 -0.3126,-0.54496 -0.5977,-1.10518 -0.8543,-1.67856 -0.1814,-0.4062 -0.3483,-0.81875 -0.5005,-1.23677 -0.214,-0.5893 -0.3982,-1.18892 -0.5522,-1.7966 -0.1566,-0.60927 -0.2823,-1.226 -0.3771,-1.84782 -0.092,-0.62227 -0.1549,-1.2488 -0.1847,-1.87724 -0.031,-0.62787 -0.031,-1.25696 0,-1.88482 0.032,-0.62616 0.097,-1.25026 0.1924,-1.87002 -2e-4,-0.0119 -2e-4,-0.0254 0,-0.0381 1.2871,1.09818 2.6236,2.13738 4.0051,3.11443 1.0834,0.7582 2.1933,1.47772 3.3276,2.15728 1.5995,0.95766 3.2459,1.8348 4.9329,2.62817 1.6888,0.79517 3.4163,1.50538 5.1761,2.12793 1.7585,0.624 3.5473,1.15968 5.3595,1.60504 1.8122,0.44222 3.6452,0.79364 5.4925,1.0528 1.8482,0.2621 3.7082,0.43158 5.5733,0.50782 1.865,0.0732 3.7324,0.0533 5.5955,-0.0601 1.8619,-0.11099 3.7171,-0.31486 5.5586,-0.61101 1.8443,-0.29849 3.6723,-0.68916 5.4775,-1.17049 1.8017,-0.48042 3.5783,-1.05059 5.3231,-1.70838 1.7464,-0.6551 3.459,-1.39713 5.1314,-2.22325 1.6741,-0.82833 3.3058,-1.73991 4.8886,-2.73138 1.3495,-0.86124 2.6612,-1.77995 3.9318,-2.75367 1.7727,-1.39729 3.4941,-2.85848 5.1609,-4.38064 0.031,-0.0286 0.06,-0.0577 0.09,-0.0866 -0.4772,-4.75479 -1.319,-9.46591 -2.518,-14.09168 -9.4148,-34.96196 -38.2102,-61.31787 -73.867,-67.60907 -4.1876,-0.77711 -8.4236,-1.26654 -12.6781,-1.46485 z"
       id="path5917" />
   <path
       inkscape:connector-curvature="0"
       style="color:#000000;display:inline;overflow:visible;visibility:visible;opacity:1;fill:#525db7;fill-opacity:1;stroke:none;stroke-width:0.1;stroke-linecap:butt;stroke-linejoin:miter;stroke-miterlimit:11.19999981;stroke-dasharray:none;stroke-dashoffset:0;stroke-opacity:1;marker:none;enable-background:accumulate"
       d="m 144.4364,128.98519 a 55.970475,55.970475 0 0 0 -3.0846,1.22214 55.970475,55.970475 0 0 0 -4.9774,2.55495 55.970475,55.970475 0 0 0 -4.6897,3.04804 55.970475,55.970475 0 0 0 -4.3658,3.49704 55.970475,55.970475 0 0 0 -3.998,3.9169 55.970475,55.970475 0 0 0 -3.5853,4.29958 55.970475,55.970475 0 0 0 -3.1366,4.63091 55.970475,55.970475 0 0 0 -2.6576,4.91806 55.970475,55.970475 0 0 0 -2.1572,5.16845 55.970475,55.970475 0 0 0 -1.3767,4.52796 93.284127,93.284127 0 0 0 -1.3032,6.49348 55.970475,55.970475 0 0 0 -0.2562,2.07623 93.284127,93.284127 0 0 0 -0.23,2.29719 93.284127,93.284127 0 0 0 6.7366,46.0589 93.284127,93.284127 0 0 0 24.1265,33.742 55.969813,55.969813 0 0 1 0.5666,-0.78786 55.969813,55.969813 0 0 1 3.6961,-4.20379 55.969813,55.969813 0 0 1 4.0937,-3.81359 55.969813,55.969813 0 0 1 4.454,-3.38701 55.969813,55.969813 0 0 1 4.7637,-2.92295 55.969813,55.969813 0 0 1 1.0453,-0.50054 55.970475,55.970475 0 0 1 0.4492,0.20724 55.970475,55.970475 0 0 1 4.8073,2.8713 55.970475,55.970475 0 0 1 4.484,3.34244 55.970475,55.970475 0 0 1 4.1378,3.76962 55.970475,55.970475 0 0 1 3.7397,4.16004 55.970475,55.970475 0 0 1 0.8689,1.14827 93.284127,93.284127 0 0 0 17.6257,-20.85019 93.284127,93.284127 0 0 0 0.6627,-1.20022 93.284127,93.284127 0 0 0 5.6689,-11.37459 93.284127,93.284127 0 0 0 6.9795,-46.31681 93.284127,93.284127 0 0 0 -2.0466,-11.66975 55.970475,55.970475 0 0 0 -1.1191,-3.67379 55.970475,55.970475 0 0 0 -2.1498,-5.16092 55.970475,55.970475 0 0 0 -2.658,-4.92532 55.970475,55.970475 0 0 0 -3.1438,-4.63123 55.970475,55.970475 0 0 0 -3.578,-4.292 55.970475,55.970475 0 0 0 -3.9976,-3.91696 55.970475,55.970475 0 0 0 -4.3659,-3.49698 55.970475,55.970475 0 0 0 -4.6973,-3.04804 55.970475,55.970475 0 0 0 -4.9697,-2.5622 55.970475,55.970475 0 0 0 -3.0922,-1.21494 93.284127,93.284127 0 0 1 0.7069,2.63569 93.284127,93.284127 0 0 1 1.4946,9.20339 93.284127,93.284127 0 0 1 0.5669,9.31344 93.284127,93.284127 0 0 1 -0.3694,9.31341 93.284127,93.284127 0 0 1 -1.2883,9.23231 93.284127,93.284127 0 0 1 -2.2087,9.06316 93.284127,93.284127 0 0 1 -3.1068,8.79056 93.284127,93.284127 0 0 1 -3.961,8.44452 93.284127,93.284127 0 0 1 -4.7859,7.9956 93.284127,93.284127 0 0 1 -0.6845,0.92052 93.284127,93.284127 0 0 1 -0.6775,-0.913 93.284127,93.284127 0 0 1 -4.7854,-8.00312 93.284127,93.284127 0 0 1 -3.9687,-8.43699 93.284127,93.284127 0 0 1 -3.0993,-8.79815 93.284127,93.284127 0 0 1 -2.2088,-9.056 93.284127,93.284127 0 0 1 -1.2957,-9.23941 93.284127,93.284127 0 0 1 -0.3619,-9.31341 93.284127,93.284127 0 0 1 0.5669,-9.30639 93.284127,93.284127 0 0 1 1.4947,-9.20296 93.284127,93.284127 0 0 1 0.6993,-2.64322 z"
       id="path5919" />
   <g
       id="g6037"
       transform="matrix(0.52979808,0,0,0.52979808,332.8141,-981.612)"
       style="fill:#525db7;fill-opacity:1">
      <path
          inkscape:connector-curvature="0"
          id="path5921"
          d="m -331.66277,1913.7033 c -13.84599,0.7044 -26.58824,9.5272 -31.62858,23.3745 -2.60061,7.1435 -2.71506,14.5511 -0.87517,21.373 l -0.0708,10e-5 34.35228,128.2376 33.43503,-125.2777 c 6.72093,-18.4629 -2.79834,-38.8746 -21.26191,-45.5948 -4.61549,-1.6799 -9.35061,-2.3479 -13.96611,-2.1125 z"
          style="color:#000000;display:inline;overflow:visible;visibility:visible;opacity:1;fill:#525db7;fill-opacity:1;stroke:none;stroke-width:0;stroke-linecap:butt;stroke-linejoin:miter;stroke-miterlimit:11.19999981;stroke-dasharray:none;stroke-dashoffset:0;stroke-opacity:1;marker:none;enable-background:accumulate" />
      <path
          inkscape:connector-curvature="0"
          style="color:#000000;display:inline;overflow:visible;visibility:visible;opacity:1;fill:#525db7;fill-opacity:1;stroke:none;stroke-width:0;stroke-linecap:butt;stroke-linejoin:miter;stroke-miterlimit:11.19999981;stroke-dasharray:none;stroke-dashoffset:0;stroke-opacity:1;marker:none;enable-background:accumulate"
          d="m -239.27781,1974.1217 c 7.27424,4.7081 11.41409,13.4655 9.81491,22.5357 -0.82468,4.6792 -3.07759,8.7244 -6.2053,11.8419 l 0.0386,0.022 -58.66472,58.6789 21.05204,-78.257 c 2.13185,-12.0937 13.66293,-20.1671 25.75676,-18.0346 3.02314,0.533 5.79484,1.6511 8.21948,3.2209 z"
          id="path5931" />
      <path
          inkscape:connector-curvature="0"
          id="path5995"
          d="m -420.4314,1974.1217 c -7.27424,4.7081 -11.41409,13.4655 -9.81491,22.5357 0.82468,4.6792 3.07759,8.7244 6.2053,11.8419 l -0.0386,0.022 58.66472,58.6788 -21.05204,-78.2569 c -2.13185,-12.0938 -13.66293,-20.1671 -25.75676,-18.0346 -3.02314,0.533 -5.79484,1.6511 -8.21948,3.2209 z"
          style="color:#000000;display:inline;overflow:visible;visibility:visible;opacity:1;fill:#525db7;fill-opacity:1;stroke:none;stroke-width:0;stroke-linecap:butt;stroke-linejoin:miter;stroke-miterlimit:11.19999981;stroke-dasharray:none;stroke-dashoffset:0;stroke-opacity:1;marker:none;enable-background:accumulate" />
   </g>
   <g
       id="g4169"
       transform="translate(0,10.263615)">
      <path
          d="m 382.54616,32.81219 q 3.07793,0.255165 5.85286,0.255165 l 14.33711,0 q 2.07322,0 2.50381,-0.191374 0.20733,-0.09569 0.46249,-0.09569 0.17543,0 0.3987,0.159478 0.57412,0.478436 0.97282,1.020663 0.12758,0.14353 0.12758,0.350852 0,0.318957 -0.28706,0.462488 -0.35086,0.22327 -0.68576,0.749548 -2.5995,3.907223 -6.2675,6.52267 -0.14353,0.09569 -0.31896,0.09569 -0.19137,0 -0.33491,-0.127583 -0.59007,-0.494383 -1.37151,-0.685757 4.32187,-2.711134 6.76189,-6.698096 l -16.13922,0 q -2.34434,0 -5.199,0.271113 -0.0638,0 -0.12758,0 -0.38275,0 -0.4306,-0.334904 -0.19137,-1.180141 -0.25516,-1.754263 z m 2.55165,22.039924 q 4.78436,-2.471917 6.63431,-6.411035 1.59478,-3.237413 1.59478,-8.133402 0,-1.339619 -0.3349,-2.503811 1.4353,0.127582 2.21675,0.414644 0.38275,0.14353 0.38275,0.462487 0,0.159479 -0.11164,0.366801 -0.30301,0.510331 -0.30301,1.227984 0,5.167102 -1.81805,8.930794 -1.8659,3.811535 -6.13992,6.506721 -0.19138,0.111635 -0.3668,0.111635 -0.20733,0 -0.38275,-0.159478 -0.57412,-0.558175 -1.37152,-0.81334 z"
          style="font-style:normal;font-variant:normal;font-weight:normal;font-stretch:normal;font-size:medium;line-height:125%;font-family:'Yu Gothic';-inkscape-font-specification:'Yu Gothic';text-align:start;letter-spacing:53.10179138px;word-spacing:0px;writing-mode:lr-tb;text-anchor:start;fill:#000000;fill-opacity:1;stroke:none;stroke-width:1px;stroke-linecap:butt;stroke-linejoin:miter;stroke-opacity:1"
          id="path4156"
          inkscape:connector-curvature="0" />
      <path
          d="m 481.32258,38.393936 0,11.944937 q 0,2.711134 0.0957,5.581746 0,0.334905 -0.28706,0.334905 -0.31896,0.01595 -0.71765,0.01595 -0.3987,0 -0.73361,-0.01595 -0.25516,0 -0.25516,-0.334905 0.0957,-2.774925 0.0957,-5.486059 l 0,-10.445839 q -4.72057,4.274022 -10.71696,7.734705 -0.12758,0.07974 -0.23921,0.07974 -0.17543,0 -0.35086,-0.175426 -0.47843,-0.542227 -1.22798,-0.845236 5.96449,-3.317152 10.15878,-6.921365 3.98696,-3.460683 6.49077,-6.570513 1.45125,-1.802107 1.8659,-3.205517 1.27583,0.637914 1.834,1.243932 0.17543,0.175426 0.17543,0.382748 0,0.271114 -0.27112,0.398696 -0.59007,0.334905 -1.77021,1.70642 -1.834,2.264594 -4.14644,4.577032 z"
          style="font-style:normal;font-variant:normal;font-weight:normal;font-stretch:normal;font-size:medium;line-height:125%;font-family:'Yu Gothic';-inkscape-font-specification:'Yu Gothic';text-align:start;letter-spacing:53.10179138px;word-spacing:0px;writing-mode:lr-tb;text-anchor:start;fill:#000000;fill-opacity:1;stroke:none;stroke-width:1px;stroke-linecap:butt;stroke-linejoin:miter;stroke-opacity:1"
          id="path4158"
          inkscape:connector-curvature="0" />
      <path
          d="m 557.42117,31.392831 q 1.40341,0.143531 2.32839,0.462488 0.31896,0.09569 0.31896,0.382748 0,0.143531 -0.0957,0.303009 -0.35085,0.558175 -0.35085,3.269309 l 0,5.390372 q 0,2.152959 0.0957,4.401606 0,0.462487 -0.39869,0.462487 l -1.21204,0 q -0.3668,0 -0.3668,-0.350852 0,-0.04784 0,-0.111635 0.0797,-3.093883 0.0797,-4.497293 l 0,-5.294685 q 0,-2.982248 -0.3987,-4.417554 z m 1.65858,24.017457 q 4.95978,-1.451254 7.3679,-4.28997 2.75898,-3.269309 2.75898,-8.978638 l 0,-6.171817 q 0,-3.508526 -0.39869,-5.135206 1.45125,0.127582 2.39217,0.462487 0.28706,0.111635 0.28706,0.414644 0,0.159479 -0.0957,0.334905 -0.35086,0.669809 -0.35086,3.891274 l 0,5.948547 q 0,6.52267 -2.95035,9.9993 -2.51976,2.9663 -7.01705,4.672719 -0.19137,0.06379 -0.31896,0.06379 -0.22327,0 -0.39869,-0.239218 -0.47844,-0.574123 -1.27583,-0.972819 z"
          style="font-style:normal;font-variant:normal;font-weight:normal;font-stretch:normal;font-size:medium;line-height:125%;font-family:'Yu Gothic';-inkscape-font-specification:'Yu Gothic';text-align:start;letter-spacing:53.10179138px;word-spacing:0px;writing-mode:lr-tb;text-anchor:start;fill:#000000;fill-opacity:1;stroke:none;stroke-width:1px;stroke-linecap:butt;stroke-linejoin:miter;stroke-opacity:1"
          id="path4160"
          inkscape:connector-curvature="0" />
      <path
          d="m 652.41795,43.959734 q 5.5339,4.066701 9.42517,8.276933 0.20733,0.191374 0.20733,0.318957 0,0.09569 -0.15948,0.287061 -0.23922,0.271113 -0.89308,0.924975 -0.11164,0.111635 -0.19138,0.111635 -0.11163,0 -0.28706,-0.175426 -4.01885,-4.59298 -9.18596,-8.404515 -5.70933,5.980442 -11.78546,9.249751 -0.20732,0.111635 -0.3349,0.111635 -0.15948,0 -0.31896,-0.175427 -0.51033,-0.574122 -1.37151,-0.956871 6.90542,-3.524474 12.02467,-8.946742 3.58827,-3.875326 6.23561,-8.946742 l -10.19067,0 q -2.85467,0 -4.57703,0.175427 -0.0478,0 -0.0957,0 -0.25517,0 -0.28706,-0.271114 -0.14353,-0.781444 -0.14353,-1.594784 1.57883,0.09569 4.91193,0.09569 l 9.60061,0 q 1.22798,0 1.65857,-0.271114 0.0957,-0.04784 0.22327,-0.04784 0.25517,0 0.4306,0.159478 0.49438,0.350853 1.00471,0.940923 0.14353,0.159479 0.14353,0.366801 0,0.287061 -0.23922,0.414644 -0.3668,0.207322 -0.84523,1.004714 -2.28055,4.082649 -4.95978,7.351957 z"
          style="font-style:normal;font-variant:normal;font-weight:normal;font-stretch:normal;font-size:medium;line-height:125%;font-family:'Yu Gothic';-inkscape-font-specification:'Yu Gothic';text-align:start;letter-spacing:53.10179138px;word-spacing:0px;writing-mode:lr-tb;text-anchor:start;fill:#000000;fill-opacity:1;stroke:none;stroke-width:1px;stroke-linecap:butt;stroke-linejoin:miter;stroke-opacity:1"
          id="path4163"
          inkscape:connector-curvature="0" />
   </g>
</svg>
